<svg width="1778" height="470" viewBox="0 0 1778 470" fill="none" xmlns="http://www.w3.org/2000/svg">
<g filter="url(#filter0_d_2602_3977)">
<path d="M-31 49C-31 12.5492 -1.4508 -17 35 -17H1745C1781.45 -17 1811 12.5492 1811 49V396C1811 432.451 1781.45 462 1745 462H46.609C12.5289 462 -15.947 436.052 -19.1067 402.119L-31 274.392V49Z" fill="white"/>
</g>
<path d="M1592.06 274.256C1572.05 275.045 1568.56 245.991 1588.2 242.097L1669.6 225.956C1679.52 223.989 1686.93 215.705 1687.8 205.629L1711.44 -71.0008L1722.71 201.401C1724.19 237.2 1696.83 267.587 1661.08 269.863L1592.06 274.256Z" fill="#FEC320"/>
<path d="M176.068 242.13C162.451 242.667 159.751 223.056 173.013 219.944L217.864 209.418C224.579 207.842 229.463 202.056 229.89 195.17L241.817 2.99999L248.847 172.895C250.322 208.554 223.182 238.871 187.581 241.333L176.068 242.13Z" fill="#E74B23"/>
<path d="M1667.95 465.676C1660.62 464.888 1660.26 454.342 1667.52 453.081L1742.95 439.998C1749.41 438.878 1754.47 433.853 1755.65 427.406C1759 409.031 1785.93 410.956 1786.71 429.627L1787.24 442.534C1787.63 451.877 1780.43 459.784 1771.1 460.28L1668.97 465.703C1668.63 465.721 1668.29 465.712 1667.95 465.676Z" fill="#2E46A7"/>
<path d="M1040.6 101.864L791.609 78.4545C784.907 77.8244 779.431 72.8388 778.178 66.2252C774.69 47.827 747.465 50.9517 748.216 69.6641L749.221 94.7192C749.591 103.946 757.271 111.179 766.504 110.995L863.805 109.056L1040.6 101.864Z" fill="#278837"/>
<path d="M-19.9999 354.682C-19.9999 335.619 7.57805 333.021 11.1393 351.748L23.3817 416.126C25.1847 425.607 32.9866 432.788 42.5849 433.8L310 461.999H47.2331C11.5315 461.999 -17.6982 433.609 -18.7389 397.923L-19.9999 354.682Z" fill="#155BD8"/>
<path d="M348 181.003C348 158.912 365.909 141.003 388 141.003H1406V337.003C1406 359.094 1388.09 377.003 1366 377.003H348V181.003Z" fill="#248C4F"/>
<path d="M782.035 283V240.312H794.899V273.336H811.987V283H782.035ZM838.058 283.96C833.834 283.96 830.101 283.171 826.858 281.592C823.615 280.013 821.077 277.581 819.242 274.296C817.407 271.011 816.49 266.808 816.49 261.688C816.49 254.349 818.41 248.803 822.25 245.048C826.09 241.251 831.359 239.352 838.058 239.352C842.282 239.352 846.015 240.141 849.258 241.72C852.501 243.299 855.039 245.731 856.874 249.016C858.709 252.259 859.626 256.461 859.626 261.624C859.626 268.963 857.706 274.531 853.866 278.328C850.069 282.083 844.799 283.96 838.058 283.96ZM838.058 273.72C839.722 273.72 841.173 273.357 842.41 272.632C843.647 271.864 844.607 270.605 845.29 268.856C846.015 267.064 846.378 264.632 846.378 261.56C846.378 258.488 846.015 256.077 845.29 254.328C844.607 252.579 843.647 251.363 842.41 250.68C841.173 249.955 839.722 249.592 838.058 249.592C836.394 249.592 834.943 249.976 833.706 250.744C832.469 251.469 831.487 252.707 830.762 254.456C830.079 256.205 829.738 258.637 829.738 261.752C829.738 264.824 830.079 267.235 830.762 268.984C831.487 270.691 832.469 271.907 833.706 272.632C834.943 273.357 836.394 273.72 838.058 273.72ZM885.427 283.96C881.288 283.96 877.619 283.256 874.419 281.848C871.219 280.397 868.702 278.051 866.867 274.808C865.032 271.523 864.115 267.149 864.115 261.688C864.115 256.355 865.032 252.045 866.867 248.76C868.702 245.432 871.219 243.021 874.419 241.528C877.619 239.992 881.267 239.224 885.363 239.224C888.222 239.224 890.995 239.523 893.683 240.12C896.371 240.675 898.952 241.443 901.427 242.424V253.816C898.611 252.28 896.094 251.085 893.875 250.232C891.699 249.336 889.416 248.888 887.027 248.888C885.064 248.888 883.336 249.251 881.843 249.976C880.392 250.659 879.262 251.917 878.451 253.752C877.64 255.587 877.235 258.211 877.235 261.624C877.235 264.952 877.662 267.555 878.515 269.432C879.368 271.267 880.478 272.568 881.843 273.336C883.251 274.061 884.744 274.424 886.323 274.424C887.262 274.424 888.094 274.36 888.819 274.232C889.587 274.104 890.184 273.891 890.611 273.592V268.024H884.915V258.424H903.411V278.84C900.638 280.461 897.715 281.72 894.643 282.616C891.614 283.512 888.542 283.96 885.427 283.96ZM911.723 283V240.312H924.587V283H911.723ZM932.91 283V240.312H943.278L963.246 266.424L959.342 274.872V240.312H970.99V283H962.03L941.998 257.976L944.558 252.152V283H932.91Z" fill="white"/>
<rect width="18.4406" height="144.922" transform="matrix(0.00938257 -0.999956 1 0.000149935 1257 161.442)" fill="#2E46A7"/>
<rect width="18.4396" height="93.2501" transform="matrix(0.00405389 -0.999992 0.999976 -0.00698856 1316 152.095)" fill="#155BD8"/>
<path d="M1387 203.833V151.969L1408.96 151.003V202.867L1387 203.833Z" fill="#FBBC04"/>
<path d="M1415.75 228.659H1397.62L1397 156.002H1415.12L1415.75 228.659Z" fill="#A83443"/>
<rect width="16.3735" height="202.781" transform="matrix(-0.0151367 0.999886 -1 -0.000664689 549.029 358.138)" fill="#2E30A7"/>
<rect width="16.3717" height="130.478" transform="matrix(-0.00695699 0.999976 -0.999992 0.0038663 476.591 366.003)" fill="#E74B23"/>
<path d="M382.745 325.999L382.722 366.051L345.977 367.056L346 327.004L382.745 325.999Z" fill="#FBBC04"/>
<path d="M339 301.003L364.361 301.017L365.193 365.526L339.832 365.512L339 301.003Z" fill="#A83434"/>
<path d="M478.312 429.54C476.392 429.54 474.658 429.204 473.11 428.532C471.574 427.848 470.308 426.876 469.312 425.616C468.328 424.344 467.704 422.832 467.44 421.08L472.552 420.324C472.912 421.812 473.656 422.958 474.784 423.762C475.912 424.566 477.196 424.968 478.636 424.968C479.44 424.968 480.22 424.842 480.976 424.59C481.732 424.338 482.35 423.966 482.83 423.474C483.322 422.982 483.568 422.376 483.568 421.656C483.568 421.392 483.526 421.14 483.442 420.9C483.37 420.648 483.244 420.414 483.064 420.198C482.884 419.982 482.626 419.778 482.29 419.586C481.966 419.394 481.552 419.22 481.048 419.064L474.316 417.084C473.812 416.94 473.224 416.736 472.552 416.472C471.892 416.208 471.25 415.83 470.626 415.338C470.002 414.846 469.48 414.198 469.06 413.394C468.652 412.578 468.448 411.552 468.448 410.316C468.448 408.576 468.886 407.13 469.762 405.978C470.638 404.826 471.808 403.968 473.272 403.404C474.736 402.84 476.356 402.564 478.132 402.576C479.92 402.6 481.516 402.906 482.92 403.494C484.324 404.082 485.5 404.94 486.448 406.068C487.396 407.184 488.08 408.552 488.5 410.172L483.208 411.072C483.016 410.232 482.662 409.524 482.146 408.948C481.63 408.372 481.012 407.934 480.292 407.634C479.584 407.334 478.84 407.172 478.06 407.148C477.292 407.124 476.566 407.232 475.882 407.472C475.21 407.7 474.658 408.036 474.226 408.48C473.806 408.924 473.596 409.452 473.596 410.064C473.596 410.628 473.77 411.09 474.118 411.45C474.466 411.798 474.904 412.08 475.432 412.296C475.96 412.512 476.5 412.692 477.052 412.836L481.552 414.06C482.224 414.24 482.968 414.48 483.784 414.78C484.6 415.068 485.38 415.476 486.124 416.004C486.88 416.52 487.498 417.204 487.978 418.056C488.47 418.908 488.716 419.988 488.716 421.296C488.716 422.688 488.422 423.906 487.834 424.95C487.258 425.982 486.478 426.84 485.494 427.524C484.51 428.196 483.394 428.7 482.146 429.036C480.91 429.372 479.632 429.54 478.312 429.54ZM501.42 429.54C499.464 429.54 497.748 429.102 496.272 428.226C494.796 427.35 493.644 426.144 492.816 424.608C492 423.06 491.592 421.284 491.592 419.28C491.592 417.252 492.012 415.47 492.852 413.934C493.692 412.386 494.85 411.18 496.326 410.316C497.802 409.452 499.5 409.02 501.42 409.02C503.376 409.02 505.092 409.458 506.568 410.334C508.056 411.21 509.214 412.422 510.042 413.97C510.87 415.506 511.284 417.276 511.284 419.28C511.284 421.296 510.864 423.078 510.024 424.626C509.196 426.162 508.038 427.368 506.55 428.244C505.074 429.108 503.364 429.54 501.42 429.54ZM501.42 424.968C502.992 424.968 504.162 424.44 504.93 423.384C505.71 422.316 506.1 420.948 506.1 419.28C506.1 417.552 505.704 416.172 504.912 415.14C504.132 414.108 502.968 413.592 501.42 413.592C500.352 413.592 499.476 413.832 498.792 414.312C498.108 414.792 497.598 415.458 497.262 416.31C496.938 417.162 496.776 418.152 496.776 419.28C496.776 421.02 497.166 422.406 497.946 423.438C498.738 424.458 499.896 424.968 501.42 424.968ZM538.643 429V417.516C538.643 416.232 538.337 415.236 537.725 414.528C537.125 413.808 536.291 413.448 535.223 413.448C534.539 413.448 533.945 413.61 533.441 413.934C532.937 414.246 532.541 414.69 532.253 415.266C531.977 415.83 531.839 416.484 531.839 417.228L529.787 415.86C529.787 414.528 530.099 413.352 530.723 412.332C531.359 411.312 532.205 410.52 533.261 409.956C534.329 409.38 535.511 409.092 536.807 409.092C539.027 409.092 540.701 409.752 541.829 411.072C542.969 412.38 543.539 414.096 543.539 416.22V429H538.643ZM515.207 429V409.56H519.527V416.004H520.139V429H515.207ZM526.943 429V417.516C526.943 416.232 526.637 415.236 526.025 414.528C525.425 413.808 524.591 413.448 523.523 413.448C522.503 413.448 521.681 413.802 521.057 414.51C520.445 415.206 520.139 416.112 520.139 417.228L518.087 415.788C518.087 414.516 518.405 413.376 519.041 412.368C519.677 411.36 520.529 410.562 521.597 409.974C522.677 409.386 523.883 409.092 525.215 409.092C526.739 409.092 527.987 409.416 528.959 410.064C529.943 410.712 530.669 411.576 531.137 412.656C531.605 413.736 531.839 414.924 531.839 416.22V429H526.943ZM556.904 429.54C554.912 429.54 553.154 429.114 551.63 428.262C550.118 427.398 548.93 426.216 548.066 424.716C547.214 423.204 546.788 421.476 546.788 419.532C546.788 417.408 547.208 415.56 548.048 413.988C548.888 412.416 550.046 411.198 551.522 410.334C552.998 409.458 554.696 409.02 556.616 409.02C558.656 409.02 560.39 409.5 561.818 410.46C563.246 411.42 564.302 412.77 564.986 414.51C565.67 416.25 565.91 418.296 565.706 420.648H560.864V418.848C560.864 416.868 560.546 415.446 559.91 414.582C559.286 413.706 558.26 413.268 556.832 413.268C555.164 413.268 553.934 413.778 553.142 414.798C552.362 415.806 551.972 417.3 551.972 419.28C551.972 421.092 552.362 422.496 553.142 423.492C553.934 424.476 555.092 424.968 556.616 424.968C557.576 424.968 558.398 424.758 559.082 424.338C559.766 423.918 560.288 423.312 560.648 422.52L565.544 423.924C564.812 425.7 563.654 427.08 562.07 428.064C560.498 429.048 558.776 429.54 556.904 429.54ZM550.46 420.648V417.012H563.348V420.648H550.46ZM582.491 429V419.82C582.491 419.376 582.467 418.812 582.419 418.128C582.371 417.432 582.221 416.736 581.969 416.04C581.717 415.344 581.303 414.762 580.727 414.294C580.163 413.826 579.359 413.592 578.315 413.592C577.895 413.592 577.445 413.658 576.965 413.79C576.485 413.922 576.035 414.18 575.615 414.564C575.195 414.936 574.847 415.488 574.571 416.22C574.307 416.952 574.175 417.924 574.175 419.136L571.367 417.804C571.367 416.268 571.679 414.828 572.303 413.484C572.927 412.14 573.863 411.054 575.111 410.226C576.371 409.398 577.955 408.984 579.863 408.984C581.387 408.984 582.629 409.242 583.589 409.758C584.549 410.274 585.293 410.928 585.821 411.72C586.361 412.512 586.745 413.34 586.973 414.204C587.201 415.056 587.339 415.836 587.387 416.544C587.435 417.252 587.459 417.768 587.459 418.092V429H582.491ZM569.207 429V409.56H573.563V416.004H574.175V429H569.207ZM603.793 429C602.449 429.252 601.129 429.36 599.833 429.324C598.549 429.3 597.397 429.078 596.377 428.658C595.369 428.226 594.601 427.536 594.073 426.588C593.593 425.7 593.341 424.8 593.317 423.888C593.293 422.964 593.281 421.92 593.281 420.756V404.16H598.177V420.468C598.177 421.224 598.183 421.908 598.195 422.52C598.219 423.12 598.345 423.6 598.573 423.96C599.005 424.644 599.695 425.016 600.643 425.076C601.591 425.136 602.641 425.088 603.793 424.932V429ZM589.969 413.34V409.56H603.793V413.34H589.969ZM616.107 429.54C614.115 429.54 612.357 429.114 610.833 428.262C609.321 427.398 608.133 426.216 607.269 424.716C606.417 423.204 605.991 421.476 605.991 419.532C605.991 417.408 606.411 415.56 607.251 413.988C608.091 412.416 609.249 411.198 610.725 410.334C612.201 409.458 613.899 409.02 615.819 409.02C617.859 409.02 619.593 409.5 621.021 410.46C622.449 411.42 623.505 412.77 624.189 414.51C624.873 416.25 625.113 418.296 624.909 420.648H620.067V418.848C620.067 416.868 619.749 415.446 619.113 414.582C618.489 413.706 617.463 413.268 616.035 413.268C614.367 413.268 613.137 413.778 612.345 414.798C611.565 415.806 611.175 417.3 611.175 419.28C611.175 421.092 611.565 422.496 612.345 423.492C613.137 424.476 614.295 424.968 615.819 424.968C616.779 424.968 617.601 424.758 618.285 424.338C618.969 423.918 619.491 423.312 619.851 422.52L624.747 423.924C624.015 425.7 622.857 427.08 621.273 428.064C619.701 429.048 617.979 429.54 616.107 429.54ZM609.663 420.648V417.012H622.551V420.648H609.663ZM641.58 429.54C640.188 429.54 639.006 429.276 638.034 428.748C637.074 428.208 636.342 427.494 635.838 426.606C635.346 425.706 635.1 424.716 635.1 423.636C635.1 422.736 635.238 421.914 635.514 421.17C635.79 420.426 636.234 419.772 636.846 419.208C637.47 418.632 638.304 418.152 639.348 417.768C640.068 417.504 640.926 417.27 641.922 417.066C642.918 416.862 644.046 416.67 645.306 416.49C646.566 416.298 647.952 416.088 649.464 415.86L647.7 416.832C647.7 415.68 647.424 414.834 646.872 414.294C646.32 413.754 645.396 413.484 644.1 413.484C643.38 413.484 642.63 413.658 641.85 414.006C641.07 414.354 640.524 414.972 640.212 415.86L635.784 414.456C636.276 412.848 637.2 411.54 638.556 410.532C639.912 409.524 641.76 409.02 644.1 409.02C645.816 409.02 647.34 409.284 648.672 409.812C650.004 410.34 651.012 411.252 651.696 412.548C652.08 413.268 652.308 413.988 652.38 414.708C652.452 415.428 652.488 416.232 652.488 417.12V429H648.204V425.004L648.816 425.832C647.868 427.14 646.842 428.088 645.738 428.676C644.646 429.252 643.26 429.54 641.58 429.54ZM642.624 425.688C643.524 425.688 644.28 425.532 644.892 425.22C645.516 424.896 646.008 424.53 646.368 424.122C646.74 423.714 646.992 423.372 647.124 423.096C647.376 422.568 647.52 421.956 647.556 421.26C647.604 420.552 647.628 419.964 647.628 419.496L649.068 419.856C647.616 420.096 646.44 420.3 645.54 420.468C644.64 420.624 643.914 420.768 643.362 420.9C642.81 421.032 642.324 421.176 641.904 421.332C641.424 421.524 641.034 421.734 640.734 421.962C640.446 422.178 640.23 422.418 640.086 422.682C639.954 422.946 639.888 423.24 639.888 423.564C639.888 424.008 639.996 424.392 640.212 424.716C640.44 425.028 640.758 425.268 641.166 425.436C641.574 425.604 642.06 425.688 642.624 425.688ZM665.052 429.54C663.264 429.54 661.698 429.09 660.354 428.19C659.01 427.29 657.96 426.066 657.204 424.518C656.46 422.97 656.088 421.224 656.088 419.28C656.088 417.3 656.466 415.542 657.222 414.006C657.99 412.458 659.064 411.24 660.444 410.352C661.824 409.464 663.444 409.02 665.304 409.02C667.152 409.02 668.706 409.47 669.966 410.37C671.226 411.27 672.18 412.494 672.828 414.042C673.476 415.59 673.8 417.336 673.8 419.28C673.8 421.224 673.47 422.97 672.81 424.518C672.162 426.066 671.19 427.29 669.894 428.19C668.598 429.09 666.984 429.54 665.052 429.54ZM665.844 425.184C666.936 425.184 667.806 424.938 668.454 424.446C669.114 423.954 669.588 423.264 669.876 422.376C670.164 421.488 670.308 420.456 670.308 419.28C670.308 418.104 670.164 417.072 669.876 416.184C669.588 415.296 669.126 414.606 668.49 414.114C667.866 413.622 667.044 413.376 666.024 413.376C664.932 413.376 664.032 413.646 663.324 414.186C662.628 414.714 662.112 415.428 661.776 416.328C661.44 417.216 661.272 418.2 661.272 419.28C661.272 420.372 661.434 421.368 661.758 422.268C662.082 423.156 662.58 423.864 663.252 424.392C663.924 424.92 664.788 425.184 665.844 425.184ZM670.308 429V415.68H669.696V403.08H674.628V429H670.308ZM703.068 429V417.516C703.068 416.232 702.762 415.236 702.15 414.528C701.55 413.808 700.716 413.448 699.648 413.448C698.964 413.448 698.37 413.61 697.866 413.934C697.362 414.246 696.966 414.69 696.678 415.266C696.402 415.83 696.264 416.484 696.264 417.228L694.212 415.86C694.212 414.528 694.524 413.352 695.148 412.332C695.784 411.312 696.63 410.52 697.686 409.956C698.754 409.38 699.936 409.092 701.232 409.092C703.452 409.092 705.126 409.752 706.254 411.072C707.394 412.38 707.964 414.096 707.964 416.22V429H703.068ZM679.632 429V409.56H683.952V416.004H684.564V429H679.632ZM691.368 429V417.516C691.368 416.232 691.062 415.236 690.45 414.528C689.85 413.808 689.016 413.448 687.948 413.448C686.928 413.448 686.106 413.802 685.482 414.51C684.87 415.206 684.564 416.112 684.564 417.228L682.512 415.788C682.512 414.516 682.83 413.376 683.466 412.368C684.102 411.36 684.954 410.562 686.022 409.974C687.102 409.386 688.308 409.092 689.64 409.092C691.164 409.092 692.412 409.416 693.384 410.064C694.368 410.712 695.094 411.576 695.562 412.656C696.03 413.736 696.264 414.924 696.264 416.22V429H691.368ZM713.005 406.86V402.54H717.901V406.86H713.005ZM713.005 429V409.56H717.901V429H713.005ZM736.545 429V419.82C736.545 419.376 736.521 418.812 736.473 418.128C736.425 417.432 736.275 416.736 736.023 416.04C735.771 415.344 735.357 414.762 734.781 414.294C734.217 413.826 733.413 413.592 732.369 413.592C731.949 413.592 731.499 413.658 731.019 413.79C730.539 413.922 730.089 414.18 729.669 414.564C729.249 414.936 728.901 415.488 728.625 416.22C728.361 416.952 728.229 417.924 728.229 419.136L725.421 417.804C725.421 416.268 725.733 414.828 726.357 413.484C726.981 412.14 727.917 411.054 729.165 410.226C730.425 409.398 732.009 408.984 733.917 408.984C735.441 408.984 736.683 409.242 737.643 409.758C738.603 410.274 739.347 410.928 739.875 411.72C740.415 412.512 740.799 413.34 741.027 414.204C741.255 415.056 741.393 415.836 741.441 416.544C741.489 417.252 741.513 417.768 741.513 418.092V429H736.545ZM723.261 429V409.56H727.617V416.004H728.229V429H723.261ZM746.544 406.86V402.54H751.44V406.86H746.544ZM746.544 429V409.56H751.44V429H746.544ZM764.432 429.54C761.984 429.54 760.004 428.988 758.492 427.884C756.992 426.768 756.08 425.196 755.756 423.168L760.76 422.412C760.964 423.324 761.414 424.038 762.11 424.554C762.818 425.07 763.712 425.328 764.792 425.328C765.68 425.328 766.364 425.16 766.844 424.824C767.324 424.476 767.564 423.996 767.564 423.384C767.564 423 767.468 422.694 767.276 422.466C767.084 422.226 766.652 421.992 765.98 421.764C765.32 421.536 764.288 421.236 762.884 420.864C761.3 420.456 760.034 420 759.086 419.496C758.138 418.992 757.454 418.392 757.034 417.696C756.614 416.988 756.404 416.136 756.404 415.14C756.404 413.892 756.722 412.812 757.358 411.9C757.994 410.976 758.888 410.268 760.04 409.776C761.204 409.272 762.572 409.02 764.144 409.02C765.668 409.02 767.018 409.254 768.194 409.722C769.37 410.19 770.318 410.856 771.038 411.72C771.77 412.584 772.22 413.604 772.388 414.78L767.384 415.68C767.3 414.96 766.988 414.39 766.448 413.97C765.908 413.55 765.176 413.304 764.252 413.232C763.352 413.172 762.626 413.292 762.074 413.592C761.534 413.892 761.264 414.324 761.264 414.888C761.264 415.224 761.378 415.506 761.606 415.734C761.846 415.962 762.332 416.196 763.064 416.436C763.808 416.676 764.936 416.988 766.448 417.372C767.924 417.756 769.106 418.206 769.994 418.722C770.894 419.226 771.548 419.838 771.956 420.558C772.364 421.266 772.568 422.124 772.568 423.132C772.568 425.124 771.848 426.69 770.408 427.83C768.968 428.97 766.976 429.54 764.432 429.54ZM788.188 429C786.844 429.252 785.524 429.36 784.228 429.324C782.944 429.3 781.792 429.078 780.772 428.658C779.764 428.226 778.996 427.536 778.468 426.588C777.988 425.7 777.736 424.8 777.712 423.888C777.688 422.964 777.676 421.92 777.676 420.756V404.16H782.572V420.468C782.572 421.224 782.578 421.908 782.59 422.52C782.614 423.12 782.74 423.6 782.968 423.96C783.4 424.644 784.09 425.016 785.038 425.076C785.986 425.136 787.036 425.088 788.188 424.932V429ZM774.364 413.34V409.56H788.188V413.34H774.364ZM792.52 429V409.56H796.84V414.312L796.372 413.7C796.624 413.028 796.96 412.416 797.38 411.864C797.8 411.312 798.316 410.856 798.928 410.496C799.396 410.208 799.906 409.986 800.458 409.83C801.01 409.662 801.58 409.56 802.168 409.524C802.756 409.476 803.344 409.488 803.932 409.56V414.132C803.392 413.964 802.762 413.91 802.042 413.97C801.334 414.018 800.692 414.18 800.116 414.456C799.54 414.72 799.054 415.074 798.658 415.518C798.262 415.95 797.962 416.466 797.758 417.066C797.554 417.654 797.452 418.32 797.452 419.064V429H792.52ZM812.369 429.54C810.977 429.54 809.795 429.276 808.823 428.748C807.863 428.208 807.131 427.494 806.627 426.606C806.135 425.706 805.889 424.716 805.889 423.636C805.889 422.736 806.027 421.914 806.303 421.17C806.579 420.426 807.023 419.772 807.635 419.208C808.259 418.632 809.093 418.152 810.137 417.768C810.857 417.504 811.715 417.27 812.711 417.066C813.707 416.862 814.835 416.67 816.095 416.49C817.355 416.298 818.741 416.088 820.253 415.86L818.489 416.832C818.489 415.68 818.213 414.834 817.661 414.294C817.109 413.754 816.185 413.484 814.889 413.484C814.169 413.484 813.419 413.658 812.639 414.006C811.859 414.354 811.313 414.972 811.001 415.86L806.573 414.456C807.065 412.848 807.989 411.54 809.345 410.532C810.701 409.524 812.549 409.02 814.889 409.02C816.605 409.02 818.129 409.284 819.461 409.812C820.793 410.34 821.801 411.252 822.485 412.548C822.869 413.268 823.097 413.988 823.169 414.708C823.241 415.428 823.277 416.232 823.277 417.12V429H818.993V425.004L819.605 425.832C818.657 427.14 817.631 428.088 816.527 428.676C815.435 429.252 814.049 429.54 812.369 429.54ZM813.413 425.688C814.313 425.688 815.069 425.532 815.681 425.22C816.305 424.896 816.797 424.53 817.157 424.122C817.529 423.714 817.781 423.372 817.913 423.096C818.165 422.568 818.309 421.956 818.345 421.26C818.393 420.552 818.417 419.964 818.417 419.496L819.857 419.856C818.405 420.096 817.229 420.3 816.329 420.468C815.429 420.624 814.703 420.768 814.151 420.9C813.599 421.032 813.113 421.176 812.693 421.332C812.213 421.524 811.823 421.734 811.523 421.962C811.235 422.178 811.019 422.418 810.875 422.682C810.743 422.946 810.677 423.24 810.677 423.564C810.677 424.008 810.785 424.392 811.001 424.716C811.229 425.028 811.547 425.268 811.955 425.436C812.363 425.604 812.849 425.688 813.413 425.688ZM835.842 429.54C834.054 429.54 832.488 429.09 831.144 428.19C829.8 427.29 828.75 426.066 827.994 424.518C827.25 422.97 826.878 421.224 826.878 419.28C826.878 417.3 827.256 415.542 828.012 414.006C828.78 412.458 829.854 411.24 831.234 410.352C832.614 409.464 834.234 409.02 836.094 409.02C837.942 409.02 839.496 409.47 840.756 410.37C842.016 411.27 842.97 412.494 843.617 414.042C844.266 415.59 844.59 417.336 844.59 419.28C844.59 421.224 844.26 422.97 843.6 424.518C842.952 426.066 841.98 427.29 840.684 428.19C839.388 429.09 837.774 429.54 835.842 429.54ZM836.634 425.184C837.726 425.184 838.596 424.938 839.244 424.446C839.904 423.954 840.378 423.264 840.666 422.376C840.954 421.488 841.098 420.456 841.098 419.28C841.098 418.104 840.954 417.072 840.666 416.184C840.378 415.296 839.916 414.606 839.28 414.114C838.656 413.622 837.834 413.376 836.814 413.376C835.722 413.376 834.822 413.646 834.114 414.186C833.418 414.714 832.902 415.428 832.566 416.328C832.23 417.216 832.062 418.2 832.062 419.28C832.062 420.372 832.224 421.368 832.548 422.268C832.872 423.156 833.37 423.864 834.042 424.392C834.714 424.92 835.578 425.184 836.634 425.184ZM841.098 429V415.68H840.486V403.08H845.418V429H841.098ZM859.206 429.54C857.25 429.54 855.534 429.102 854.058 428.226C852.582 427.35 851.43 426.144 850.602 424.608C849.786 423.06 849.378 421.284 849.378 419.28C849.378 417.252 849.798 415.47 850.638 413.934C851.478 412.386 852.636 411.18 854.112 410.316C855.588 409.452 857.286 409.02 859.206 409.02C861.162 409.02 862.878 409.458 864.354 410.334C865.842 411.21 867 412.422 867.828 413.97C868.656 415.506 869.07 417.276 869.07 419.28C869.07 421.296 868.65 423.078 867.81 424.626C866.982 426.162 865.824 427.368 864.336 428.244C862.86 429.108 861.15 429.54 859.206 429.54ZM859.206 424.968C860.778 424.968 861.948 424.44 862.716 423.384C863.496 422.316 863.886 420.948 863.886 419.28C863.886 417.552 863.49 416.172 862.698 415.14C861.918 414.108 860.754 413.592 859.206 413.592C858.138 413.592 857.262 413.832 856.578 414.312C855.894 414.792 855.384 415.458 855.048 416.31C854.724 417.162 854.562 418.152 854.562 419.28C854.562 421.02 854.952 422.406 855.732 423.438C856.524 424.458 857.682 424.968 859.206 424.968ZM873.028 429V409.56H877.348V414.312L876.88 413.7C877.132 413.028 877.468 412.416 877.888 411.864C878.308 411.312 878.824 410.856 879.436 410.496C879.904 410.208 880.414 409.986 880.966 409.83C881.518 409.662 882.088 409.56 882.676 409.524C883.264 409.476 883.852 409.488 884.44 409.56V414.132C883.9 413.964 883.27 413.91 882.55 413.97C881.842 414.018 881.2 414.18 880.624 414.456C880.048 414.72 879.562 415.074 879.166 415.518C878.77 415.95 878.47 416.466 878.266 417.066C878.062 417.654 877.96 418.32 877.96 419.064V429H873.028ZM896.548 429.54C894.556 429.54 892.798 429.114 891.274 428.262C889.762 427.398 888.574 426.216 887.71 424.716C886.858 423.204 886.432 421.476 886.432 419.532C886.432 417.408 886.852 415.56 887.692 413.988C888.532 412.416 889.69 411.198 891.166 410.334C892.642 409.458 894.34 409.02 896.26 409.02C898.3 409.02 900.034 409.5 901.462 410.46C902.89 411.42 903.946 412.77 904.63 414.51C905.314 416.25 905.554 418.296 905.35 420.648H900.508V418.848C900.508 416.868 900.19 415.446 899.554 414.582C898.93 413.706 897.904 413.268 896.476 413.268C894.808 413.268 893.578 413.778 892.786 414.798C892.006 415.806 891.616 417.3 891.616 419.28C891.616 421.092 892.006 422.496 892.786 423.492C893.578 424.476 894.736 424.968 896.26 424.968C897.22 424.968 898.042 424.758 898.726 424.338C899.41 423.918 899.932 423.312 900.292 422.52L905.188 423.924C904.456 425.7 903.298 427.08 901.714 428.064C900.142 429.048 898.42 429.54 896.548 429.54ZM890.104 420.648V417.012H902.992V420.648H890.104ZM917.011 429.54C914.563 429.54 912.583 428.988 911.071 427.884C909.571 426.768 908.659 425.196 908.335 423.168L913.339 422.412C913.543 423.324 913.993 424.038 914.689 424.554C915.397 425.07 916.291 425.328 917.371 425.328C918.259 425.328 918.943 425.16 919.423 424.824C919.903 424.476 920.143 423.996 920.143 423.384C920.143 423 920.047 422.694 919.855 422.466C919.663 422.226 919.231 421.992 918.559 421.764C917.899 421.536 916.867 421.236 915.463 420.864C913.879 420.456 912.613 420 911.665 419.496C910.717 418.992 910.033 418.392 909.613 417.696C909.193 416.988 908.983 416.136 908.983 415.14C908.983 413.892 909.301 412.812 909.937 411.9C910.573 410.976 911.467 410.268 912.619 409.776C913.783 409.272 915.151 409.02 916.723 409.02C918.247 409.02 919.597 409.254 920.773 409.722C921.949 410.19 922.897 410.856 923.617 411.72C924.349 412.584 924.799 413.604 924.967 414.78L919.963 415.68C919.879 414.96 919.567 414.39 919.027 413.97C918.487 413.55 917.755 413.304 916.831 413.232C915.931 413.172 915.205 413.292 914.653 413.592C914.113 413.892 913.843 414.324 913.843 414.888C913.843 415.224 913.957 415.506 914.185 415.734C914.425 415.962 914.911 416.196 915.643 416.436C916.387 416.676 917.515 416.988 919.027 417.372C920.503 417.756 921.685 418.206 922.573 418.722C923.473 419.226 924.127 419.838 924.535 420.558C924.943 421.266 925.147 422.124 925.147 423.132C925.147 425.124 924.427 426.69 922.987 427.83C921.547 428.97 919.555 429.54 917.011 429.54ZM945.849 429.54C943.917 429.54 942.303 429.09 941.007 428.19C939.711 427.29 938.733 426.066 938.073 424.518C937.425 422.97 937.101 421.224 937.101 419.28C937.101 417.336 937.425 415.59 938.073 414.042C938.721 412.494 939.675 411.27 940.935 410.37C942.195 409.47 943.749 409.02 945.597 409.02C947.457 409.02 949.077 409.464 950.457 410.352C951.837 411.24 952.905 412.458 953.661 414.006C954.429 415.542 954.813 417.3 954.813 419.28C954.813 421.224 954.435 422.97 953.679 424.518C952.935 426.066 951.891 427.29 950.547 428.19C949.203 429.09 947.637 429.54 945.849 429.54ZM936.273 437.64V409.56H940.593V422.88H941.205V437.64H936.273ZM945.057 425.184C946.113 425.184 946.977 424.92 947.649 424.392C948.321 423.864 948.819 423.156 949.143 422.268C949.467 421.368 949.629 420.372 949.629 419.28C949.629 418.2 949.461 417.216 949.125 416.328C948.789 415.428 948.267 414.714 947.559 414.186C946.863 413.646 945.969 413.376 944.877 413.376C943.857 413.376 943.029 413.622 942.393 414.114C941.769 414.606 941.313 415.296 941.025 416.184C940.737 417.072 940.593 418.104 940.593 419.28C940.593 420.456 940.737 421.488 941.025 422.376C941.313 423.264 941.781 423.954 942.429 424.446C943.089 424.938 943.965 425.184 945.057 425.184ZM967.522 429.54C965.566 429.54 963.85 429.102 962.374 428.226C960.898 427.35 959.746 426.144 958.918 424.608C958.102 423.06 957.694 421.284 957.694 419.28C957.694 417.252 958.114 415.47 958.954 413.934C959.794 412.386 960.952 411.18 962.428 410.316C963.904 409.452 965.602 409.02 967.522 409.02C969.478 409.02 971.194 409.458 972.67 410.334C974.158 411.21 975.316 412.422 976.144 413.97C976.972 415.506 977.386 417.276 977.386 419.28C977.386 421.296 976.966 423.078 976.126 424.626C975.298 426.162 974.14 427.368 972.652 428.244C971.176 429.108 969.466 429.54 967.522 429.54ZM967.522 424.968C969.094 424.968 970.264 424.44 971.032 423.384C971.812 422.316 972.202 420.948 972.202 419.28C972.202 417.552 971.806 416.172 971.014 415.14C970.234 414.108 969.07 413.592 967.522 413.592C966.454 413.592 965.578 413.832 964.894 414.312C964.21 414.792 963.7 415.458 963.364 416.31C963.04 417.162 962.878 418.152 962.878 419.28C962.878 421.02 963.268 422.406 964.048 423.438C964.84 424.458 965.998 424.968 967.522 424.968ZM989.228 429.54C987.44 429.54 985.874 429.09 984.53 428.19C983.186 427.29 982.136 426.066 981.38 424.518C980.636 422.97 980.264 421.224 980.264 419.28C980.264 417.3 980.642 415.542 981.398 414.006C982.166 412.458 983.24 411.24 984.62 410.352C986 409.464 987.62 409.02 989.48 409.02C991.328 409.02 992.882 409.47 994.142 410.37C995.402 411.27 996.356 412.494 997.004 414.042C997.652 415.59 997.976 417.336 997.976 419.28C997.976 421.224 997.646 422.97 996.986 424.518C996.338 426.066 995.366 427.29 994.07 428.19C992.774 429.09 991.16 429.54 989.228 429.54ZM990.02 425.184C991.112 425.184 991.982 424.938 992.63 424.446C993.29 423.954 993.764 423.264 994.052 422.376C994.34 421.488 994.484 420.456 994.484 419.28C994.484 418.104 994.34 417.072 994.052 416.184C993.764 415.296 993.302 414.606 992.666 414.114C992.042 413.622 991.22 413.376 990.2 413.376C989.108 413.376 988.208 413.646 987.5 414.186C986.804 414.714 986.288 415.428 985.952 416.328C985.616 417.216 985.448 418.2 985.448 419.28C985.448 420.372 985.61 421.368 985.934 422.268C986.258 423.156 986.756 423.864 987.428 424.392C988.1 424.92 988.964 425.184 990.02 425.184ZM994.484 429V415.68H993.872V403.08H998.804V429H994.484ZM1012.88 429.54C1010.89 429.54 1009.13 429.114 1007.61 428.262C1006.09 427.398 1004.91 426.216 1004.04 424.716C1003.19 423.204 1002.76 421.476 1002.76 419.532C1002.76 417.408 1003.18 415.56 1004.02 413.988C1004.86 412.416 1006.02 411.198 1007.5 410.334C1008.97 409.458 1010.67 409.02 1012.59 409.02C1014.63 409.02 1016.37 409.5 1017.79 410.46C1019.22 411.42 1020.28 412.77 1020.96 414.51C1021.65 416.25 1021.89 418.296 1021.68 420.648H1016.84V418.848C1016.84 416.868 1016.52 415.446 1015.89 414.582C1015.26 413.706 1014.24 413.268 1012.81 413.268C1011.14 413.268 1009.91 413.778 1009.12 414.798C1008.34 415.806 1007.95 417.3 1007.95 419.28C1007.95 421.092 1008.34 422.496 1009.12 423.492C1009.91 424.476 1011.07 424.968 1012.59 424.968C1013.55 424.968 1014.37 424.758 1015.06 424.338C1015.74 423.918 1016.26 423.312 1016.62 422.52L1021.52 423.924C1020.79 425.7 1019.63 427.08 1018.05 428.064C1016.47 429.048 1014.75 429.54 1012.88 429.54ZM1006.44 420.648V417.012H1019.32V420.648H1006.44ZM1048.62 429V417.516C1048.62 416.232 1048.31 415.236 1047.7 414.528C1047.1 413.808 1046.27 413.448 1045.2 413.448C1044.52 413.448 1043.92 413.61 1043.42 413.934C1042.91 414.246 1042.52 414.69 1042.23 415.266C1041.95 415.83 1041.82 416.484 1041.82 417.228L1039.76 415.86C1039.76 414.528 1040.08 413.352 1040.7 412.332C1041.34 411.312 1042.18 410.52 1043.24 409.956C1044.31 409.38 1045.49 409.092 1046.78 409.092C1049 409.092 1050.68 409.752 1051.81 411.072C1052.95 412.38 1053.52 414.096 1053.52 416.22V429H1048.62ZM1025.18 429V409.56H1029.5V416.004H1030.12V429H1025.18ZM1036.92 429V417.516C1036.92 416.232 1036.61 415.236 1036 414.528C1035.4 413.808 1034.57 413.448 1033.5 413.448C1032.48 413.448 1031.66 413.802 1031.03 414.51C1030.42 415.206 1030.12 416.112 1030.12 417.228L1028.06 415.788C1028.06 414.516 1028.38 413.376 1029.02 412.368C1029.65 411.36 1030.51 410.562 1031.57 409.974C1032.65 409.386 1033.86 409.092 1035.19 409.092C1036.72 409.092 1037.96 409.416 1038.94 410.064C1039.92 410.712 1040.65 411.576 1041.11 412.656C1041.58 413.736 1041.82 414.924 1041.82 416.22V429H1036.92ZM1065.4 429V409.56H1069.72V414.312L1069.25 413.7C1069.51 413.028 1069.84 412.416 1070.26 411.864C1070.68 411.312 1071.2 410.856 1071.81 410.496C1072.28 410.208 1072.79 409.986 1073.34 409.83C1073.89 409.662 1074.46 409.56 1075.05 409.524C1075.64 409.476 1076.23 409.488 1076.81 409.56V414.132C1076.27 413.964 1075.64 413.91 1074.92 413.97C1074.22 414.018 1073.57 414.18 1073 414.456C1072.42 414.72 1071.94 415.074 1071.54 415.518C1071.14 415.95 1070.84 416.466 1070.64 417.066C1070.44 417.654 1070.33 418.32 1070.33 419.064V429H1065.4ZM1088.92 429.54C1086.93 429.54 1085.17 429.114 1083.65 428.262C1082.14 427.398 1080.95 426.216 1080.09 424.716C1079.23 423.204 1078.81 421.476 1078.81 419.532C1078.81 417.408 1079.23 415.56 1080.07 413.988C1080.91 412.416 1082.07 411.198 1083.54 410.334C1085.02 409.458 1086.72 409.02 1088.64 409.02C1090.68 409.02 1092.41 409.5 1093.84 410.46C1095.27 411.42 1096.32 412.77 1097.01 414.51C1097.69 416.25 1097.93 418.296 1097.73 420.648H1092.88V418.848C1092.88 416.868 1092.57 415.446 1091.93 414.582C1091.31 413.706 1090.28 413.268 1088.85 413.268C1087.18 413.268 1085.95 413.778 1085.16 414.798C1084.38 415.806 1083.99 417.3 1083.99 419.28C1083.99 421.092 1084.38 422.496 1085.16 423.492C1085.95 424.476 1087.11 424.968 1088.64 424.968C1089.6 424.968 1090.42 424.758 1091.1 424.338C1091.79 423.918 1092.31 423.312 1092.67 422.52L1097.56 423.924C1096.83 425.7 1095.67 427.08 1094.09 428.064C1092.52 429.048 1090.8 429.54 1088.92 429.54ZM1082.48 420.648V417.012H1095.37V420.648H1082.48ZM1106.84 429.54C1105.45 429.54 1104.26 429.276 1103.29 428.748C1102.33 428.208 1101.6 427.494 1101.1 426.606C1100.6 425.706 1100.36 424.716 1100.36 423.636C1100.36 422.736 1100.5 421.914 1100.77 421.17C1101.05 420.426 1101.49 419.772 1102.1 419.208C1102.73 418.632 1103.56 418.152 1104.61 417.768C1105.33 417.504 1106.18 417.27 1107.18 417.066C1108.18 416.862 1109.3 416.67 1110.56 416.49C1111.82 416.298 1113.21 416.088 1114.72 415.86L1112.96 416.832C1112.96 415.68 1112.68 414.834 1112.13 414.294C1111.58 413.754 1110.65 413.484 1109.36 413.484C1108.64 413.484 1107.89 413.658 1107.11 414.006C1106.33 414.354 1105.78 414.972 1105.47 415.86L1101.04 414.456C1101.53 412.848 1102.46 411.54 1103.81 410.532C1105.17 409.524 1107.02 409.02 1109.36 409.02C1111.07 409.02 1112.6 409.284 1113.93 409.812C1115.26 410.34 1116.27 411.252 1116.95 412.548C1117.34 413.268 1117.57 413.988 1117.64 414.708C1117.71 415.428 1117.75 416.232 1117.75 417.12V429H1113.46V425.004L1114.07 425.832C1113.13 427.14 1112.1 428.088 1111 428.676C1109.9 429.252 1108.52 429.54 1106.84 429.54ZM1107.88 425.688C1108.78 425.688 1109.54 425.532 1110.15 425.22C1110.77 424.896 1111.27 424.53 1111.63 424.122C1112 423.714 1112.25 423.372 1112.38 423.096C1112.63 422.568 1112.78 421.956 1112.81 421.26C1112.86 420.552 1112.89 419.964 1112.89 419.496L1114.33 419.856C1112.87 420.096 1111.7 420.3 1110.8 420.468C1109.9 420.624 1109.17 420.768 1108.62 420.9C1108.07 421.032 1107.58 421.176 1107.16 421.332C1106.68 421.524 1106.29 421.734 1105.99 421.962C1105.7 422.178 1105.49 422.418 1105.34 422.682C1105.21 422.946 1105.15 423.24 1105.15 423.564C1105.15 424.008 1105.25 424.392 1105.47 424.716C1105.7 425.028 1106.02 425.268 1106.42 425.436C1106.83 425.604 1107.32 425.688 1107.88 425.688ZM1122.79 429V402.54H1127.68V429H1122.79ZM1133.44 406.86V402.54H1138.33V406.86H1133.44ZM1133.44 429V409.56H1138.33V429H1133.44ZM1141.93 429V428.388L1151.47 413.808H1143.01V409.56H1159.03V410.172L1149.53 424.752H1158.67V429H1141.93ZM1167.31 429.54C1165.91 429.54 1164.73 429.276 1163.76 428.748C1162.8 428.208 1162.07 427.494 1161.56 426.606C1161.07 425.706 1160.83 424.716 1160.83 423.636C1160.83 422.736 1160.96 421.914 1161.24 421.17C1161.52 420.426 1161.96 419.772 1162.57 419.208C1163.2 418.632 1164.03 418.152 1165.07 417.768C1165.79 417.504 1166.65 417.27 1167.65 417.066C1168.64 416.862 1169.77 416.67 1171.03 416.49C1172.29 416.298 1173.68 416.088 1175.19 415.86L1173.43 416.832C1173.43 415.68 1173.15 414.834 1172.6 414.294C1172.05 413.754 1171.12 413.484 1169.83 413.484C1169.11 413.484 1168.36 413.658 1167.58 414.006C1166.8 414.354 1166.25 414.972 1165.94 415.86L1161.51 414.456C1162 412.848 1162.93 411.54 1164.28 410.532C1165.64 409.524 1167.49 409.02 1169.83 409.02C1171.54 409.02 1173.07 409.284 1174.4 409.812C1175.73 410.34 1176.74 411.252 1177.42 412.548C1177.81 413.268 1178.03 413.988 1178.11 414.708C1178.18 415.428 1178.21 416.232 1178.21 417.12V429H1173.93V425.004L1174.54 425.832C1173.59 427.14 1172.57 428.088 1171.46 428.676C1170.37 429.252 1168.99 429.54 1167.31 429.54ZM1168.35 425.688C1169.25 425.688 1170.01 425.532 1170.62 425.22C1171.24 424.896 1171.73 424.53 1172.09 424.122C1172.47 423.714 1172.72 423.372 1172.85 423.096C1173.1 422.568 1173.25 421.956 1173.28 421.26C1173.33 420.552 1173.35 419.964 1173.35 419.496L1174.79 419.856C1173.34 420.096 1172.17 420.3 1171.27 420.468C1170.37 420.624 1169.64 420.768 1169.09 420.9C1168.54 421.032 1168.05 421.176 1167.63 421.332C1167.15 421.524 1166.76 421.734 1166.46 421.962C1166.17 422.178 1165.96 422.418 1165.81 422.682C1165.68 422.946 1165.61 423.24 1165.61 423.564C1165.61 424.008 1165.72 424.392 1165.94 424.716C1166.17 425.028 1166.48 425.268 1166.89 425.436C1167.3 425.604 1167.79 425.688 1168.35 425.688ZM1182.9 429V409.56H1187.22V414.312L1186.75 413.7C1187 413.028 1187.34 412.416 1187.76 411.864C1188.18 411.312 1188.69 410.856 1189.3 410.496C1189.77 410.208 1190.28 409.986 1190.83 409.83C1191.39 409.662 1191.96 409.56 1192.54 409.524C1193.13 409.476 1193.72 409.488 1194.31 409.56V414.132C1193.77 413.964 1193.14 413.91 1192.42 413.97C1191.71 414.018 1191.07 414.18 1190.49 414.456C1189.92 414.72 1189.43 415.074 1189.03 415.518C1188.64 415.95 1188.34 416.466 1188.13 417.066C1187.93 417.654 1187.83 418.32 1187.83 419.064V429H1182.9ZM1205.3 429V402.54H1210.19V429H1205.3ZM1224.34 429.54C1222.38 429.54 1220.67 429.102 1219.19 428.226C1217.71 427.35 1216.56 426.144 1215.73 424.608C1214.92 423.06 1214.51 421.284 1214.51 419.28C1214.51 417.252 1214.93 415.47 1215.77 413.934C1216.61 412.386 1217.77 411.18 1219.24 410.316C1220.72 409.452 1222.42 409.02 1224.34 409.02C1226.29 409.02 1228.01 409.458 1229.49 410.334C1230.97 411.21 1232.13 412.422 1232.96 413.97C1233.79 415.506 1234.2 417.276 1234.2 419.28C1234.2 421.296 1233.78 423.078 1232.94 424.626C1232.11 426.162 1230.96 427.368 1229.47 428.244C1227.99 429.108 1226.28 429.54 1224.34 429.54ZM1224.34 424.968C1225.91 424.968 1227.08 424.44 1227.85 423.384C1228.63 422.316 1229.02 420.948 1229.02 419.28C1229.02 417.552 1228.62 416.172 1227.83 415.14C1227.05 414.108 1225.89 413.592 1224.34 413.592C1223.27 413.592 1222.39 413.832 1221.71 414.312C1221.03 414.792 1220.52 415.458 1220.18 416.31C1219.86 417.162 1219.69 418.152 1219.69 419.28C1219.69 421.02 1220.08 422.406 1220.86 423.438C1221.66 424.458 1222.81 424.968 1224.34 424.968ZM1246.48 438.18C1245.37 438.18 1244.32 438 1243.33 437.64C1242.33 437.292 1241.44 436.8 1240.64 436.164C1239.86 435.54 1239.23 434.808 1238.74 433.968L1243.27 431.772C1243.58 432.348 1244.03 432.786 1244.6 433.086C1245.19 433.386 1245.83 433.536 1246.51 433.536C1247.24 433.536 1247.93 433.41 1248.58 433.158C1249.23 432.918 1249.75 432.552 1250.13 432.06C1250.53 431.58 1250.71 430.98 1250.69 430.26V424.608H1251.3V409.56H1255.58V430.332C1255.58 430.812 1255.56 431.262 1255.51 431.682C1255.48 432.114 1255.4 432.54 1255.3 432.96C1254.98 434.148 1254.4 435.126 1253.55 435.894C1252.71 436.662 1251.68 437.232 1250.45 437.604C1249.23 437.988 1247.9 438.18 1246.48 438.18ZM1246.04 429.54C1244.26 429.54 1242.69 429.09 1241.35 428.19C1240 427.29 1238.95 426.066 1238.2 424.518C1237.45 422.97 1237.08 421.224 1237.08 419.28C1237.08 417.3 1237.46 415.542 1238.21 414.006C1238.98 412.458 1240.06 411.24 1241.44 410.352C1242.82 409.464 1244.44 409.02 1246.3 409.02C1248.14 409.02 1249.7 409.47 1250.96 410.37C1252.22 411.27 1253.17 412.494 1253.82 414.042C1254.47 415.59 1254.79 417.336 1254.79 419.28C1254.79 421.224 1254.46 422.97 1253.8 424.518C1253.15 426.066 1252.18 427.29 1250.89 428.19C1249.59 429.09 1247.98 429.54 1246.04 429.54ZM1246.84 425.184C1247.93 425.184 1248.8 424.938 1249.45 424.446C1250.11 423.954 1250.58 423.264 1250.87 422.376C1251.16 421.488 1251.3 420.456 1251.3 419.28C1251.3 418.104 1251.16 417.072 1250.87 416.184C1250.58 415.296 1250.12 414.606 1249.48 414.114C1248.86 413.622 1248.04 413.376 1247.02 413.376C1245.92 413.376 1245.02 413.646 1244.32 414.186C1243.62 414.714 1243.1 415.428 1242.77 416.328C1242.43 417.216 1242.26 418.2 1242.26 419.28C1242.26 420.372 1242.43 421.368 1242.75 422.268C1243.07 423.156 1243.57 423.864 1244.24 424.392C1244.92 424.92 1245.78 425.184 1246.84 425.184ZM1260.99 406.86V402.54H1265.88V406.86H1260.99ZM1260.99 429V409.56H1265.88V429H1260.99ZM1284.53 429V419.82C1284.53 419.376 1284.5 418.812 1284.45 418.128C1284.41 417.432 1284.26 416.736 1284 416.04C1283.75 415.344 1283.34 414.762 1282.76 414.294C1282.2 413.826 1281.39 413.592 1280.35 413.592C1279.93 413.592 1279.48 413.658 1279 413.79C1278.52 413.922 1278.07 414.18 1277.65 414.564C1277.23 414.936 1276.88 415.488 1276.61 416.22C1276.34 416.952 1276.21 417.924 1276.21 419.136L1273.4 417.804C1273.4 416.268 1273.71 414.828 1274.34 413.484C1274.96 412.14 1275.9 411.054 1277.15 410.226C1278.41 409.398 1279.99 408.984 1281.9 408.984C1283.42 408.984 1284.66 409.242 1285.62 409.758C1286.58 410.274 1287.33 410.928 1287.86 411.72C1288.4 412.512 1288.78 413.34 1289.01 414.204C1289.24 415.056 1289.37 415.836 1289.42 416.544C1289.47 417.252 1289.49 417.768 1289.49 418.092V429H1284.53ZM1271.24 429V409.56H1275.6V416.004H1276.21V429H1271.24Z" fill="#248C4F"/>
<defs>
<filter id="filter0_d_2602_3977" x="-35" y="-17" width="1850" height="487" filterUnits="userSpaceOnUse" color-interpolation-filters="sRGB">
<feFlood flood-opacity="0" result="BackgroundImageFix"/>
<feColorMatrix in="SourceAlpha" type="matrix" values="0 0 0 0 0 0 0 0 0 0 0 0 0 0 0 0 0 0 127 0" result="hardAlpha"/>
<feOffset dy="4"/>
<feGaussianBlur stdDeviation="2"/>
<feComposite in2="hardAlpha" operator="out"/>
<feColorMatrix type="matrix" values="0 0 0 0 0 0 0 0 0 0 0 0 0 0 0 0 0 0 0.25 0"/>
<feBlend mode="normal" in2="BackgroundImageFix" result="effect1_dropShadow_2602_3977"/>
<feBlend mode="normal" in="SourceGraphic" in2="effect1_dropShadow_2602_3977" result="shape"/>
</filter>
</defs>
</svg>
